<?xml version="1.0" standalone="no"?>
<!DOCTYPE svg PUBLIC "-//W3C//DTD SVG 20010904//EN"
 "http://www.w3.org/TR/2001/REC-SVG-20010904/DTD/svg10.dtd">
<svg version="1.0" xmlns="http://www.w3.org/2000/svg"
 width="512.000000pt" height="512.000000pt" viewBox="0 0 512.000000 512.000000"
 preserveAspectRatio="xMidYMid meet">

<g transform="translate(0.000000,512.000000) scale(0.100000,-0.100000)"
fill="#000000" stroke="none">
<path d="M1175 5113 c-162 -15 -329 -64 -475 -139 -357 -182 -594 -501 -677
-910 -17 -83 -18 -179 -18 -1504 0 -1325 1 -1421 18 -1504 28 -136 64 -241
123 -356 182 -357 501 -594 910 -677 83 -17 179 -18 1504 -18 1325 0 1421 1
1504 18 136 28 241 64 356 123 357 182 594 501 677 910 17 83 18 179 18 1504
0 1325 -1 1421 -18 1504 -83 409 -321 728 -677 910 -116 59 -194 87 -332 119
-92 21 -102 21 -1483 23 -765 0 -1408 -1 -1430 -3z m646 -1256 c18 -12 44 -38
57 -57 20 -29 23 -44 20 -93 -8 -111 -59 -147 -224 -158 -166 -11 -238 -50
-289 -153 -22 -45 -27 -74 -34 -175 -6 -98 -11 -127 -28 -149 -74 -101 -210
-97 -280 7 -21 31 -23 46 -23 152 0 150 11 202 66 315 80 164 231 283 409 323
22 5 97 9 166 10 115 1 129 -1 160 -22z m1801 12 c29 -6 94 -30 144 -55 143
-70 252 -194 306 -347 17 -49 22 -92 26 -207 4 -139 3 -146 -20 -180 -75 -110
-221 -109 -284 4 -17 29 -22 60 -26 147 -5 91 -10 118 -32 163 -53 107 -123
144 -297 155 -137 8 -160 19 -196 91 -43 84 -22 164 56 217 31 21 46 23 152
23 65 0 142 -5 171 -11z m-1684 -676 c15 -10 37 -39 50 -64 l22 -44 -2 -542
c-3 -529 -3 -542 -24 -570 -33 -45 -100 -75 -157 -70 -60 5 -95 30 -125 88
l-22 44 2 542 c3 529 3 542 24 570 11 15 40 38 65 51 53 28 125 26 167 -5z
m710 0 c38 -28 62 -65 72 -109 12 -51 12 -1007 0 -1059 -11 -51 -74 -111 -124
-120 -76 -15 -146 19 -184 89 -15 28 -17 81 -20 526 -2 272 0 519 3 548 7 60
47 115 100 139 40 18 120 11 153 -14z m720 0 c15 -10 37 -39 50 -64 l22 -44
-2 -542 c-3 -529 -3 -542 -24 -570 -33 -45 -100 -75 -157 -70 -60 5 -95 30
-125 88 l-22 44 2 542 c3 529 3 542 24 570 11 15 40 38 65 51 53 28 125 26
167 -5z m-2097 -1096 c59 -40 76 -75 78 -168 5 -193 52 -283 177 -335 24 -10
84 -19 156 -23 133 -8 156 -18 195 -87 45 -79 23 -168 -56 -221 -31 -21 -46
-23 -152 -23 -150 0 -202 11 -315 66 -143 70 -252 194 -306 347 -17 49 -22 92
-26 207 -4 139 -3 146 20 180 37 55 83 80 143 80 38 0 61 -6 86 -23z m2750 0
c18 -12 44 -38 56 -56 21 -31 23 -46 23 -152 0 -150 -11 -202 -66 -315 -70
-143 -194 -252 -347 -306 -49 -17 -92 -22 -207 -26 -139 -4 -146 -3 -179 20
-59 40 -76 72 -76 143 0 49 5 70 21 92 39 52 77 66 202 74 93 7 125 13 168 34
105 51 144 127 152 289 5 127 15 154 74 196 53 39 127 42 179 7z"/>
</g>
</svg>
